<svg width="32" height="32" viewBox="0 0 32 32" fill="none" xmlns="http://www.w3.org/2000/svg">
<path d="M30.7644 13.958C31.9587 13.958 32.4573 12.3375 31.4871 11.5905L16.7265 0.251036C16.5157 0.0879312 16.2612 0 15.9999 0C15.7386 0 15.4841 0.0879312 15.2733 0.251036L0.51268 11.5905C-0.457446 12.3334 0.0411447 13.958 1.23931 13.958H3.63177V29.2243H0.848938C0.678877 29.2243 0.539735 29.3713 0.539735 29.5509V31.6734C0.539735 31.8531 0.678877 32 0.848938 32H31.1509C31.3209 32 31.4601 31.8531 31.4601 31.6734V29.5509C31.4601 29.3713 31.3209 29.2243 31.1509 29.2243H28.368V13.958H30.7644ZM15.9999 3.12877L26.478 11.1783H5.52177L15.9999 3.12877ZM6.4146 13.958H10.9367V29.2243H6.4146V13.958ZM13.7195 13.958H18.2416V29.2243H13.7195V13.958ZM25.5852 29.2243H21.0245V13.958H25.5852V29.2243Z" fill="#B0B2FF"/>
</svg>
