<svg width="36" height="36" viewBox="0 0 36 36" fill="none" xmlns="http://www.w3.org/2000/svg">
<rect x="1" y="1" width="34" height="34" rx="17" stroke="#B0B2FF" stroke-width="2"/>
<path d="M30.375 26.9856C29.7012 25.3898 28.7236 23.9403 27.4964 22.7178C26.2729 21.4917 24.8236 20.5142 23.2285 19.8392C23.2142 19.8321 23.2 19.8285 23.1857 19.8214C25.4107 18.2142 26.8571 15.5964 26.8571 12.6428C26.8571 7.74993 22.8928 3.78564 18 3.78564C13.1071 3.78564 9.14281 7.74993 9.14281 12.6428C9.14281 15.5964 10.5892 18.2142 12.8142 19.8249C12.7999 19.8321 12.7857 19.8356 12.7714 19.8428C11.1714 20.5178 9.73566 21.4856 8.50352 22.7214C7.27748 23.9448 6.29997 25.3941 5.62495 26.9892C4.96181 28.5508 4.60417 30.2251 4.57138 31.9214C4.57043 31.9595 4.57711 31.9974 4.59104 32.0329C4.60497 32.0684 4.62587 32.1007 4.65249 32.128C4.67912 32.1553 4.71094 32.177 4.74608 32.1918C4.78122 32.2066 4.81896 32.2142 4.85709 32.2142H6.99995C7.15709 32.2142 7.28209 32.0892 7.28566 31.9356C7.35709 29.1785 8.46424 26.5964 10.4214 24.6392C12.4464 22.6142 15.1357 21.4999 18 21.4999C20.8642 21.4999 23.5535 22.6142 25.5785 24.6392C27.5357 26.5964 28.6428 29.1785 28.7142 31.9356C28.7178 32.0928 28.8428 32.2142 29 32.2142H31.1428C31.1809 32.2142 31.2187 32.2066 31.2538 32.1918C31.289 32.177 31.3208 32.1553 31.3474 32.128C31.374 32.1007 31.3949 32.0684 31.4089 32.0329C31.4228 31.9974 31.4295 31.9595 31.4285 31.9214C31.3928 30.2142 31.0392 28.5535 30.375 26.9856ZM18 18.7856C16.3607 18.7856 14.8178 18.1464 13.6571 16.9856C12.4964 15.8249 11.8571 14.2821 11.8571 12.6428C11.8571 11.0035 12.4964 9.46064 13.6571 8.29993C14.8178 7.13922 16.3607 6.49993 18 6.49993C19.6392 6.49993 21.1821 7.13922 22.3428 8.29993C23.5035 9.46064 24.1428 11.0035 24.1428 12.6428C24.1428 14.2821 23.5035 15.8249 22.3428 16.9856C21.1821 18.1464 19.6392 18.7856 18 18.7856Z" fill="#B0B2FF"/>
</svg>
